<svg width="49" height="50" viewBox="0 0 49 50" fill="none" xmlns="http://www.w3.org/2000/svg">
<path fill-rule="evenodd" clip-rule="evenodd" d="M28.4553 6.24998V6.85389C34.3323 8.6467 38.6179 14.227 38.6179 20.8333V35.4166H40.6504V39.5833H8.13013V35.4166H10.1626V20.8333C10.1626 14.227 14.4482 8.6467 20.3252 6.85389V6.24998C20.3252 3.94879 22.1452 2.08331 24.3903 2.08331C26.6353 2.08331 28.4553 3.94879 28.4553 6.24998ZM14.2277 35.4166H34.5529V20.8333C34.5529 15.0803 30.0029 10.4166 24.3903 10.4166C18.7776 10.4166 14.2277 15.0803 14.2277 20.8333V35.4166ZM28.4553 43.75V41.6666H20.3252V43.75C20.3252 46.0512 22.1452 47.9166 24.3903 47.9166C26.6353 47.9166 28.4553 46.0512 28.4553 43.75Z" fill="#F2F3FF"/>
</svg>
