<svg width="50" height="50" viewBox="0 0 50 50" fill="none" xmlns="http://www.w3.org/2000/svg">
<path d="M31.25 35.4167C33.5512 35.4167 35.4167 33.5512 35.4167 31.25C35.4167 28.9488 33.5512 27.0833 31.25 27.0833C28.9488 27.0833 27.0833 28.9488 27.0833 31.25C27.0833 33.5512 28.9488 35.4167 31.25 35.4167Z" fill="#EEEFEF"/>
<path fill-rule="evenodd" clip-rule="evenodd" d="M12.5 6.25C9.04822 6.25 6.25 9.04822 6.25 12.5V37.5C6.25 40.9518 9.04822 43.75 12.5 43.75H37.5C40.9518 43.75 43.75 40.9518 43.75 37.5V12.5C43.75 9.04822 40.9518 6.25 37.5 6.25H12.5ZM10.4167 37.5V14.5833H39.5833V37.5C39.5833 38.6506 38.6506 39.5833 37.5 39.5833H12.5C11.3494 39.5833 10.4167 38.6506 10.4167 37.5Z" fill="#EEEFEF"/>
</svg>
