<svg width="50" height="50" viewBox="0 0 50 50" fill="none" xmlns="http://www.w3.org/2000/svg">
<path fill-rule="evenodd" clip-rule="evenodd" d="M43.75 18.2752L29.21 3.73525C26.7693 1.29447 22.812 1.29447 20.3712 3.73525L6.25 17.8564V48.0953H20.8333V35.5953C20.8333 33.2941 22.6988 31.4286 25 31.4286C27.3012 31.4286 29.1667 33.2941 29.1667 35.5953V48.0953H43.75V18.2752ZM23.3175 6.68152L10.4167 19.5823V43.9286H16.6667V35.5953C16.6667 30.9929 20.3976 27.262 25 27.262C29.6024 27.262 33.3333 30.9929 33.3333 35.5953V43.9286H39.5833V20.0011L26.2638 6.68152C25.4502 5.86793 24.1311 5.86793 23.3175 6.68152Z" fill="#EEEFEF"/>
</svg>
