<svg width="50" height="50" viewBox="0 0 50 50" fill="none" xmlns="http://www.w3.org/2000/svg">
<path fill-rule="evenodd" clip-rule="evenodd" d="M8.83337 8.66668H39.1667C40.3633 8.66668 41.3334 9.63673 41.3334 10.8333V41.1667C41.3334 42.3633 40.3633 43.3333 39.1667 43.3333H8.83337C7.63676 43.3333 6.66671 42.3633 6.66671 41.1667V10.8333C6.66671 9.63673 7.63676 8.66668 8.83337 8.66668ZM2.33337 10.8333C2.33337 7.24349 5.24352 4.33334 8.83337 4.33334H39.1667C42.7566 4.33334 45.6667 7.24349 45.6667 10.8333V41.1667C45.6667 44.7565 42.7566 47.6667 39.1667 47.6667H8.83337C5.24352 47.6667 2.33337 44.7565 2.33337 41.1667V10.8333ZM24 26C18.017 26 13.1667 20.1797 13.1667 13H17.5C17.5 18.5598 21.1164 21.6667 24 21.6667C26.8837 21.6667 30.5 18.5598 30.5 13H34.8334C34.8334 20.1797 29.9831 26 24 26Z" fill="#F2F3FF"/>
</svg>
