<svg width="50" height="50" viewBox="0 0 50 50" fill="none" xmlns="http://www.w3.org/2000/svg">
<rect opacity="0.5" x="13.875" y="19.125" width="21.25" height="21.25" rx="2.125" fill="#EEEFEF"/>
<path fill-rule="evenodd" clip-rule="evenodd" d="M37.25 6.375H11.75C10.5764 6.375 9.625 7.3264 9.625 8.5V42.5C9.625 43.6736 10.5764 44.625 11.75 44.625H37.25C38.4236 44.625 39.375 43.6736 39.375 42.5V8.5C39.375 7.3264 38.4236 6.375 37.25 6.375ZM11.75 2.125C8.22918 2.125 5.375 4.97918 5.375 8.5V42.5C5.375 46.0208 8.22919 48.875 11.75 48.875H37.25C40.7708 48.875 43.625 46.0208 43.625 42.5V8.5C43.625 4.97918 40.7708 2.125 37.25 2.125H11.75Z" fill="#EEEFEF"/>
<path d="M13.875 12.75C13.875 11.5764 14.8264 10.625 16 10.625H24.5C25.6736 10.625 26.625 11.5764 26.625 12.75C26.625 13.9236 25.6736 14.875 24.5 14.875H16C14.8264 14.875 13.875 13.9236 13.875 12.75Z" fill="#EEEFEF"/>
</svg>
