<svg width="43" height="43" viewBox="0 0 43 43" fill="none" xmlns="http://www.w3.org/2000/svg">
<path fill-rule="evenodd" clip-rule="evenodd" d="M28.6667 12.5417C28.6667 16.4997 25.458 19.7083 21.5 19.7083C17.542 19.7083 14.3333 16.4997 14.3333 12.5417C14.3333 8.58363 17.542 5.375 21.5 5.375C25.458 5.375 28.6667 8.58363 28.6667 12.5417ZM25.0833 12.5417C25.0833 14.5207 23.479 16.125 21.5 16.125C19.521 16.125 17.9167 14.5207 17.9167 12.5417C17.9167 10.5626 19.521 8.95833 21.5 8.95833C23.479 8.95833 25.0833 10.5626 25.0833 12.5417Z" fill="#F0E3E3"/>
<path d="M28.6667 26.875C28.6667 25.8855 27.8645 25.0833 26.875 25.0833H16.125C15.1355 25.0833 14.3333 25.8855 14.3333 26.875V37.625H10.75V26.875C10.75 23.9065 13.1565 21.5 16.125 21.5H26.875C29.8435 21.5 32.25 23.9065 32.25 26.875V37.625H28.6667V26.875Z" fill="#F0E3E3"/>
</svg>
