<svg width="70" height="70" viewBox="0 0 70 70" fill="none" xmlns="http://www.w3.org/2000/svg">
<rect width="70" height="70" rx="35" fill="#E92526"/>
<path d="M32 35C32 35.8284 31.3284 36.5 30.5 36.5C29.6716 36.5 29 35.8284 29 35C29 34.1716 29.6716 33.5 30.5 33.5C31.3284 33.5 32 34.1716 32 35Z" fill="white"/>
<path d="M39.5 36.5C40.3284 36.5 41 35.8284 41 35C41 34.1716 40.3284 33.5 39.5 33.5C38.6716 33.5 38 34.1716 38 35C38 35.8284 38.6716 36.5 39.5 36.5Z" fill="white"/>
<path fill-rule="evenodd" clip-rule="evenodd" d="M35.0366 20L35 20C26.7157 20 20 26.7157 20 35C20 43.2843 26.7157 50 35 50C43.2843 50 50 43.2843 50 35C50 27.1135 43.9137 20.6486 36.1819 20.0459L36.1829 20.0423C35.7994 20.0134 35.417 19.9994 35.0366 20ZM35 47C41.6274 47 47 41.6274 47 35C47 33.9521 46.8657 32.9355 46.6133 31.9666C41.2396 32.3469 36.1038 29.7869 33.1408 25.4037C30.9698 27.6183 27.9473 28.995 24.6032 29.0038C23.5835 30.768 23 32.8158 23 35C23 41.6274 28.3726 47 35 47ZM34.9677 23L35.0355 23.0001L35 23L34.9677 23Z" fill="white"/>
</svg>
