<svg width="30" height="30" viewBox="0 0 30 30" fill="none" xmlns="http://www.w3.org/2000/svg">
<path d="M11.6667 24V21H8.33333V18H11.6667V15H15V18H18.3333V21H15V24H11.6667Z" fill="white"/>
<path fill-rule="evenodd" clip-rule="evenodd" d="M5 0C2.23858 0 0 2.01472 0 4.5V25.5C0 27.9853 2.23858 30 5 30H25C27.7614 30 30 27.9853 30 25.5V10.5C30 4.70101 24.7767 0 18.3333 0H5ZM5 3H16.6667V10.5H26.6667V25.5C26.6667 26.3284 25.9205 27 25 27H5C4.07953 27 3.33333 26.3284 3.33333 25.5V4.5C3.33333 3.67157 4.07952 3 5 3ZM20 3.15003C22.6855 3.64065 24.9021 5.29358 25.9733 7.5H20V3.15003Z" fill="white"/>
</svg>
