<svg width="70" height="70" viewBox="0 0 70 70" fill="none" xmlns="http://www.w3.org/2000/svg">
<rect width="70" height="70" rx="35" fill="#E92526"/>
<g clip-path="url(#clip0)">
<path d="M40.6629 27.1706C40.6629 25.4217 42.0807 24.0039 43.8296 24.0039C45.5785 24.0039 46.9963 25.4217 46.9963 27.1706C46.9963 28.9195 45.5785 30.3373 43.8296 30.3373C42.0807 30.3373 40.6629 28.9195 40.6629 27.1706Z" fill="white"/>
<path d="M43.8296 39.5791C42.0807 39.5791 40.6629 40.9968 40.6629 42.7457C40.6629 44.4946 42.0807 45.9124 43.8296 45.9124C45.5785 45.9124 46.9963 44.4946 46.9963 42.7457C46.9963 40.9968 45.5785 39.5791 43.8296 39.5791Z" fill="white"/>
<path d="M25.0039 42.7457C25.0039 40.9968 26.4217 39.5791 28.1706 39.5791C29.9195 39.5791 31.3373 40.9968 31.3373 42.7457C31.3373 44.4946 29.9195 45.9124 28.1706 45.9124C26.4217 45.9124 25.0039 44.4946 25.0039 42.7457Z" fill="white"/>
<path d="M28.1706 24.0039C26.4217 24.0039 25.0039 25.4217 25.0039 27.1706C25.0039 28.9195 26.4217 30.3373 28.1706 30.3373C29.9195 30.3373 31.3373 28.9195 31.3373 27.1706C31.3373 25.4217 29.9195 24.0039 28.1706 24.0039Z" fill="white"/>
<path d="M32.8333 34.9999C32.8333 33.251 34.251 31.8333 35.9999 31.8333C37.7488 31.8333 39.1666 33.251 39.1666 34.9999C39.1666 36.7488 37.7488 38.1666 35.9999 38.1666C34.251 38.1666 32.8333 36.7488 32.8333 34.9999Z" fill="white"/>
<path fill-rule="evenodd" clip-rule="evenodd" d="M18.5833 22.3333C18.5833 19.7099 20.7099 17.5833 23.3333 17.5833H48.6666C51.2899 17.5833 53.4166 19.7099 53.4166 22.3333V47.6666C53.4166 50.2899 51.2899 52.4166 48.6666 52.4166H23.3333C20.7099 52.4166 18.5833 50.2899 18.5833 47.6666V22.3333ZM23.3333 20.7499H48.6666C49.541 20.7499 50.2499 21.4588 50.2499 22.3333V47.6666C50.2499 48.541 49.541 49.2499 48.6666 49.2499H23.3333C22.4588 49.2499 21.7499 48.541 21.7499 47.6666V22.3333C21.7499 21.4588 22.4588 20.7499 23.3333 20.7499Z" fill="white"/>
</g>
<defs>
<clipPath id="clip0">
<rect width="36" height="36" fill="white" transform="translate(17 16)"/>
</clipPath>
</defs>
</svg>
