<svg width="587" height="380" viewBox="0 0 587 380" fill="none" xmlns="http://www.w3.org/2000/svg">
<g clip-path="url(#clip0)">
<path d="M449.421 375.703C441.906 368.827 437.341 357.965 438.538 347.39C439.736 336.816 447.15 327.095 456.768 324.85C466.386 322.604 477.35 328.82 480.271 338.993C481.879 319.38 483.731 298.945 493.362 282.242C502.082 267.118 517.185 256.297 533.553 254.361C549.922 252.425 567.156 259.737 577.364 273.726C587.573 287.715 590.072 308.052 582.922 324.113C577.656 335.944 567.952 344.749 557.785 351.913C524.932 374.865 485.529 384.199 446.826 378.197L449.421 375.703Z" fill="#F2F2F2"/>
<path d="M561.177 260.142C547.671 272.054 535.281 285.376 524.185 299.916C506.821 322.594 492.769 348.019 482.52 375.307C481.77 377.298 484.755 378.164 485.497 376.196C502.267 331.847 529.037 292.759 563.36 262.506C564.902 261.147 562.706 258.794 561.177 260.142Z" fill="white"/>
<path d="M188.965 373.835C199.287 364.39 205.557 349.471 203.912 334.947C202.268 320.424 192.084 307.072 178.874 303.988C165.664 300.903 150.605 309.441 146.593 323.414C144.385 296.475 141.84 268.407 128.613 245.466C116.636 224.694 95.8917 209.83 73.4095 207.171C50.9274 204.512 27.2565 214.555 13.2352 233.769C-0.786105 252.983 -4.21916 280.917 5.601 302.976C12.8352 319.226 26.1631 331.32 40.1274 341.159C84.6783 372.548 139.944 385.639 192.53 377.26" fill="#F2F2F2"/>
<path d="M35.4674 215.112C54.0179 231.473 71.0361 249.771 86.2758 269.742C101.518 289.692 114.937 311.196 126.344 333.952C132.721 346.717 138.449 359.85 143.503 373.291C144.533 376.025 140.433 377.216 139.414 374.512C130.462 350.815 119.386 328.125 106.347 306.768C93.3702 285.488 78.518 265.621 61.9986 247.446C52.6552 237.172 42.7971 227.461 32.4689 218.359C30.352 216.492 33.3679 213.261 35.4674 215.112L35.4674 215.112Z" fill="white"/>
<path d="M421.358 379.168H175.088V105.568C175.088 47.3575 218.824 0 272.584 0H323.862C377.622 0 421.358 47.3575 421.358 105.568V379.168Z" fill="#F2F2F2"/>
<path d="M370.08 379.168H175.088V105.568C175.034 83.2631 181.557 61.5219 193.707 43.5098C194.155 42.8488 194.602 42.1964 195.063 41.5511C200.94 33.205 207.933 25.8548 215.813 19.743C216.258 19.3923 216.705 19.0477 217.158 18.7031C223.752 13.7626 230.884 9.72374 238.393 6.67861C238.839 6.49561 239.293 6.31224 239.747 6.13637C246.538 3.5122 253.578 1.71466 260.736 0.776934C261.18 0.711292 261.636 0.659926 262.091 0.608559C269.067 -0.199069 276.103 -0.199069 283.079 0.608559C283.533 0.659926 283.988 0.711286 284.437 0.777636C291.594 1.71543 298.632 3.51275 305.421 6.13641C305.875 6.31228 306.329 6.49563 306.777 6.67899C314.193 9.68571 321.241 13.6643 327.765 18.5259C328.218 18.863 328.671 19.2076 329.118 19.5522C333.535 22.9659 337.684 26.7691 341.522 30.9228C344.6 34.2545 347.468 37.806 350.107 41.5532C350.566 42.1964 351.013 42.8489 351.46 43.5088C363.611 61.521 370.134 83.2626 370.08 105.568V379.168Z" fill="#CCCCCC"/>
<path d="M354.224 256.797C360.186 256.797 365.02 251.564 365.02 245.108C365.02 238.652 360.186 233.419 354.224 233.419C348.262 233.419 343.429 238.652 343.429 245.108C343.429 251.564 348.262 256.797 354.224 256.797Z" fill="#536DFE"/>
<path d="M401.183 370.973H392.911L388.976 336.426L401.185 336.427L401.183 370.973Z" fill="#FFB8B8"/>
<path d="M387.002 368.414H402.955V379.29H376.958C376.958 377.862 377.218 376.447 377.723 375.128C378.227 373.808 378.967 372.609 379.9 371.599C380.833 370.59 381.94 369.788 383.159 369.242C384.377 368.695 385.683 368.414 387.002 368.414Z" fill="#2F2E41"/>
<path d="M442.341 370.973H434.069L430.134 336.426L442.343 336.427L442.341 370.973Z" fill="#FFB8B8"/>
<path d="M428.161 368.414H444.113V379.29H418.116C418.116 377.862 418.376 376.447 418.881 375.128C419.386 373.808 420.125 372.609 421.058 371.599C421.991 370.59 423.098 369.788 424.317 369.242C425.535 368.695 426.842 368.414 428.161 368.414Z" fill="#2F2E41"/>
<path d="M359.687 247.423C359.092 246.474 358.697 245.395 358.529 244.262C358.36 243.129 358.423 241.97 358.714 240.867C359.004 239.763 359.514 238.742 360.208 237.875C360.902 237.008 361.763 236.316 362.731 235.849L390.85 151.93L404.686 160.106L372.58 240.302C373.198 242.114 373.18 244.109 372.531 245.908C371.881 247.707 370.644 249.186 369.055 250.063C367.466 250.941 365.635 251.157 363.908 250.671C362.181 250.184 360.68 249.029 359.687 247.423Z" fill="#FFB8B8"/>
<path d="M438.115 263.192C437.196 262.621 436.403 261.839 435.793 260.901C435.183 259.963 434.771 258.891 434.585 257.762C434.399 256.632 434.444 255.472 434.716 254.364C434.989 253.255 435.483 252.224 436.163 251.345L427.452 162.573L443.198 163.352L446.819 250.671C448.108 252.006 448.9 253.807 449.044 255.732C449.189 257.658 448.676 259.574 447.603 261.117C446.53 262.661 444.972 263.724 443.223 264.107C441.475 264.489 439.657 264.164 438.115 263.192Z" fill="#FFB8B8"/>
<path d="M412.995 136.386C422.148 136.386 429.567 128.353 429.567 118.443C429.567 108.533 422.148 100.499 412.995 100.499C403.843 100.499 396.424 108.533 396.424 118.443C396.424 128.353 403.843 136.386 412.995 136.386Z" fill="#FFB8B8"/>
<path d="M438.009 243.003H388.049L388.109 242.582C388.199 241.953 397.013 179.432 390.512 158.978C389.86 156.968 389.917 154.767 390.673 152.8C391.429 150.834 392.83 149.239 394.607 148.323H394.607C403.899 143.585 421.736 137.751 436.79 151.91C439.006 154.028 440.736 156.675 441.843 159.641C442.951 162.608 443.406 165.813 443.173 169.002L438.009 243.003Z" fill="#536DFE"/>
<path d="M397.645 188.671L375.152 183.73L385.696 156.677C386.326 154.057 387.891 151.815 390.047 150.442C392.203 149.07 394.773 148.679 397.195 149.356C399.616 150.033 401.691 151.722 402.964 154.053C404.236 156.384 404.603 159.166 403.984 161.789L397.645 188.671Z" fill="#536DFE"/>
<path d="M426.452 197.846L425.1 164.282C424.075 157.972 427.411 152.008 432.541 151.033C437.672 150.062 442.683 154.438 443.713 160.793L448.795 192.155L426.452 197.846Z" fill="#536DFE"/>
<path d="M436.348 238.985C444.387 272.136 445.264 314.284 443.095 360.26L432.3 358.799L412.733 271.13L401.938 360.26L389.793 359.529C386.165 311.29 382.632 269.877 388.443 242.637L436.348 238.985Z" fill="#2F2E41"/>
<path d="M423.915 132.31C420.823 135.876 415.082 133.962 414.679 129.09C414.647 128.712 414.65 128.331 414.686 127.954C414.894 125.796 416.045 123.837 415.769 121.559C415.707 120.991 415.512 120.451 415.202 119.989C412.739 116.417 406.956 121.586 404.631 118.353C403.205 116.37 404.881 113.248 403.787 111.032C402.343 108.107 398.066 109.55 395.384 107.948C392.4 106.166 392.579 101.208 394.543 98.1929C396.939 94.5155 401.139 92.5532 405.287 92.2704C409.435 91.9876 413.554 93.2017 417.426 94.8357C421.826 96.6924 426.189 99.2583 428.897 103.447C432.19 108.542 432.507 115.391 430.86 121.348C429.858 124.971 426.439 129.398 423.915 132.31Z" fill="#2F2E41"/>
<path d="M566.746 379.638H68.6096C68.397 379.638 68.1932 379.546 68.0431 379.383C67.8929 379.22 67.8086 378.999 67.8086 378.768C67.8086 378.538 67.8929 378.317 68.0431 378.154C68.1932 377.991 68.397 377.899 68.6096 377.899H566.746C566.959 377.899 567.162 377.991 567.312 378.154C567.463 378.317 567.547 378.538 567.547 378.768C567.547 378.999 567.463 379.22 567.312 379.383C567.162 379.546 566.959 379.638 566.746 379.638Z" fill="#3F3D56"/>
<path d="M316.44 299.901H228.727C227.572 299.908 226.462 299.418 225.64 298.539C224.817 297.661 224.351 296.465 224.342 295.214V83.2236C224.351 81.9728 224.817 80.7769 225.64 79.8983C226.462 79.0197 227.572 78.53 228.727 78.5368H316.44C317.595 78.53 318.706 79.0197 319.528 79.8983C320.35 80.7769 320.817 81.9728 320.826 83.2236V295.214C320.817 296.465 320.35 297.661 319.528 298.539C318.706 299.418 317.595 299.908 316.44 299.901Z" fill="white"/>
<path d="M320.826 147.13H224.342V148.591H320.826V147.13Z" fill="#CCCCCC"/>
<path d="M321.164 230.496H224.68V231.957H321.164V230.496Z" fill="#CCCCCC"/>
<path d="M256.054 78.5368H254.704V300.631H256.054V78.5368Z" fill="#CCCCCC"/>
<path d="M289.789 78.5368H288.439V300.631H289.789V78.5368Z" fill="#CCCCCC"/>
</g>
<defs>
<clipPath id="clip0">
<rect width="587" height="380" fill="white"/>
</clipPath>
</defs>
</svg>
